<svg version="1.2" xmlns="http://www.w3.org/2000/svg" viewBox="0 0 3710 3710" width="3710" height="3710">
	<title>20945605-ai</title>
	<defs>
		<linearGradient id="g1" x1="2460.8" y1="4841.7" x2="69.9" y2="1872.3" gradientUnits="userSpaceOnUse">
			<stop offset="0" stop-color="#dae3fe"/>
			<stop offset="1" stop-color="#e9effd"/>
		</linearGradient>
		<linearGradient id="g2" x1="1767.6" y1="2889.4" x2="1818.7" y2="2270.3" gradientUnits="userSpaceOnUse">
			<stop offset="0" stop-color="#09005d"/>
			<stop offset="1" stop-color="#1a0f91"/>
		</linearGradient>
		<linearGradient id="g3" x1="2642.4" y1="2918.6" x2="2601.5" y2="3368.9" gradientUnits="userSpaceOnUse">
			<stop offset="0" stop-color="#09005d"/>
			<stop offset="1" stop-color="#1a0f91"/>
		</linearGradient>
		<linearGradient id="g4" x1="2507.6" y1="2166.3" x2="2538.3" y2="2575.6" gradientUnits="userSpaceOnUse">
			<stop offset="0" stop-color="#09005d"/>
			<stop offset="1" stop-color="#1a0f91"/>
		</linearGradient>
		<linearGradient id="g5" x1="1914" y1="2661.2" x2="1938.8" y2="2999.5" gradientUnits="userSpaceOnUse">
			<stop offset="0" stop-color="#09005d"/>
			<stop offset="1" stop-color="#1a0f91"/>
		</linearGradient>
		<linearGradient id="g6" x1="2307" y1="1927" x2="2388.5" y2="1244.2" gradientUnits="userSpaceOnUse">
			<stop offset="0" stop-color="#09005d"/>
			<stop offset=".4" stop-color="#100774"/>
			<stop offset="1" stop-color="#1a0f91"/>
		</linearGradient>
		<linearGradient id="g7" x1="3375.8" y1="857.8" x2="3202.8" y2="1427.5" gradientUnits="userSpaceOnUse">
			<stop offset="0" stop-color="#09005d"/>
			<stop offset="1" stop-color="#1a0f91"/>
		</linearGradient>
		<linearGradient id="g8" x1="2733.8" y1="1296.8" x2="2408" y2="2038.1" gradientUnits="userSpaceOnUse">
			<stop offset="0" stop-color="#4f52ff"/>
			<stop offset="1" stop-color="#4042e2"/>
		</linearGradient>
		<linearGradient id="g9" x1="2499.6" y1="2470" x2="2184.9" y2="2180.2" gradientUnits="userSpaceOnUse">
			<stop offset="0" stop-color="#4f52ff"/>
			<stop offset="1" stop-color="#4042e2"/>
		</linearGradient>
		<linearGradient id="g10" x1="2283.7" y1="934.6" x2="2670.9" y2="343.6" gradientUnits="userSpaceOnUse">
			<stop offset="0" stop-color="#09005d"/>
			<stop offset="1" stop-color="#1a0f91"/>
		</linearGradient>
		<linearGradient id="g11" x1="3846.1" y1="-103.1" x2="3632.6" y2="384.9" gradientUnits="userSpaceOnUse">
			<stop offset="0" stop-color="#09005d"/>
			<stop offset="1" stop-color="#1a0f91"/>
		</linearGradient>
		<linearGradient id="g12" x1="2597.1" y1="642" x2="2381.4" y2="974.8" gradientUnits="userSpaceOnUse">
			<stop offset="0" stop-color="#4f52ff"/>
			<stop offset="1" stop-color="#4042e2"/>
		</linearGradient>
		<linearGradient id="g13" x1="3314.4" y1="1399.5" x2="3090.5" y2="1193.4" gradientUnits="userSpaceOnUse">
			<stop offset="0" stop-color="#4f52ff"/>
			<stop offset="1" stop-color="#4042e2"/>
		</linearGradient>
		<linearGradient id="g14" x1="2200" y1="612.8" x2="1861.2" y2="1102.8" gradientUnits="userSpaceOnUse">
			<stop offset="0" stop-color="#09005d"/>
			<stop offset="1" stop-color="#1a0f91"/>
		</linearGradient>
		<linearGradient id="g15" x1="2030.6" y1="693.1" x2="2607.7" y2="817.9" gradientUnits="userSpaceOnUse">
			<stop offset="0" stop-color="#4f52ff"/>
			<stop offset="1" stop-color="#4042e2"/>
		</linearGradient>
		<linearGradient id="g16" x1="1702.2" y1="1547.5" x2="1906" y2="1252.3" gradientUnits="userSpaceOnUse">
			<stop offset="0" stop-color="#4f52ff"/>
			<stop offset="1" stop-color="#4042e2"/>
		</linearGradient>
		<linearGradient id="g17" x1="1906.9" y1="985.4" x2="2083.5" y2="985.4" gradientUnits="userSpaceOnUse">
			<stop offset="0" stop-color="#4f52ff"/>
			<stop offset="1" stop-color="#4042e2"/>
		</linearGradient>
		<linearGradient id="g18" x1="1512.7" y1="1423.3" x2="1716.4" y2="1128.2" gradientUnits="userSpaceOnUse">
			<stop offset="0" stop-color="#4f52ff"/>
			<stop offset="1" stop-color="#4042e2"/>
		</linearGradient>
		<linearGradient id="g19" x1="2024.5" y1="1173.2" x2="1973.5" y2="1249.1" gradientUnits="userSpaceOnUse">
			<stop offset="0" stop-color="#09005d"/>
			<stop offset="1" stop-color="#1a0f91"/>
		</linearGradient>
		<linearGradient id="g20" x1="1848.8" y1="1016.1" x2="2072.9" y2="1016.1" gradientUnits="userSpaceOnUse">
			<stop offset="0" stop-color="#4f52ff"/>
			<stop offset="1" stop-color="#4042e2"/>
		</linearGradient>
		<linearGradient id="g21" x1="1312.9" y1="3068.3" x2="1250.4" y2="3191.1" gradientUnits="userSpaceOnUse">
			<stop offset="0" stop-color="#09005d"/>
			<stop offset="1" stop-color="#1a0f91"/>
		</linearGradient>
		<linearGradient id="g22" x1="1136.6" y1="3038.7" x2="1197.3" y2="3038.7" gradientUnits="userSpaceOnUse">
			<stop offset="0" stop-color="#febbba"/>
			<stop offset="1" stop-color="#ff928e"/>
		</linearGradient>
		<linearGradient id="g23" x1="859.7" y1="2782.5" x2="1124.2" y2="2411.7" gradientUnits="userSpaceOnUse">
			<stop offset="0" stop-color="#2b3582"/>
			<stop offset="1" stop-color="#150e42"/>
		</linearGradient>
		<linearGradient id="g24" x1="1282.9" y1="3204.1" x2="1080.4" y2="3469" gradientUnits="userSpaceOnUse">
			<stop offset="0" stop-color="#09005d"/>
			<stop offset="1" stop-color="#1a0f91"/>
		</linearGradient>
		<linearGradient id="g25" x1="1109.2" y1="3170.8" x2="1273.4" y2="3170.8" gradientUnits="userSpaceOnUse">
			<stop offset="0" stop-color="#4f52ff"/>
			<stop offset="1" stop-color="#4042e2"/>
		</linearGradient>
		<linearGradient id="g26" x1="1090.1" y1="3099.7" x2="1147.1" y2="3099.7" gradientUnits="userSpaceOnUse">
			<stop offset="0" stop-color="#febbba"/>
			<stop offset="1" stop-color="#ff928e"/>
		</linearGradient>
		<linearGradient id="g27" x1="754.9" y1="3090.7" x2="769.5" y2="2595" gradientUnits="userSpaceOnUse">
			<stop offset="0" stop-color="#09005d"/>
			<stop offset="1" stop-color="#1a0f91"/>
		</linearGradient>
		<linearGradient id="g28" x1="1816.9" y1="1638.7" x2="1614" y2="1970.2" gradientUnits="userSpaceOnUse">
			<stop offset="0" stop-color="#ff928e"/>
			<stop offset="1" stop-color="#fe7062"/>
		</linearGradient>
		<linearGradient id="g29" x1="1271.1" y1="2402.7" x2="1472.4" y2="2402.7" gradientUnits="userSpaceOnUse">
			<stop offset="0" stop-color="#febbba"/>
			<stop offset="1" stop-color="#ff928e"/>
		</linearGradient>
		<linearGradient id="g30" x1="1678.9" y1="1658" x2="1496.7" y2="1955.7" gradientUnits="userSpaceOnUse">
			<stop offset="0" stop-color="#ff928e"/>
			<stop offset="1" stop-color="#fe7062"/>
		</linearGradient>
		<linearGradient id="g31" x1="1075.7" y1="2095.1" x2="1209.4" y2="2095.1" gradientUnits="userSpaceOnUse">
			<stop offset="0" stop-color="#febbba"/>
			<stop offset="1" stop-color="#ff928e"/>
		</linearGradient>
		<linearGradient id="g32" x1="1384.8" y1="1414" x2="1180.2" y2="1748.3" gradientUnits="userSpaceOnUse">
			<stop offset="0" stop-color="#ff928e"/>
			<stop offset="1" stop-color="#fe7062"/>
		</linearGradient>
		<linearGradient id="g33" x1="1420.5" y1="1414.8" x2="1216.3" y2="1748.4" gradientUnits="userSpaceOnUse">
			<stop offset="0" stop-color="#e1473d"/>
			<stop offset="1" stop-color="#e9605a"/>
		</linearGradient>
		<linearGradient id="g34" x1="698.1" y1="2561.8" x2="960.2" y2="2251.6" gradientUnits="userSpaceOnUse">
			<stop offset="0" stop-color="#febbba"/>
			<stop offset="1" stop-color="#ff928e"/>
		</linearGradient>
		<linearGradient id="g35" x1="1285.1" y1="2046.4" x2="1187.6" y2="2280.5" gradientUnits="userSpaceOnUse">
			<stop offset="0" stop-color="#febbba"/>
			<stop offset="1" stop-color="#ff928e"/>
		</linearGradient>
		<linearGradient id="g36" x1="1085.2" y1="1957.9" x2="1269.1" y2="1910.4" gradientUnits="userSpaceOnUse">
			<stop offset="0" stop-color="#09005d"/>
			<stop offset="1" stop-color="#1a0f91"/>
		</linearGradient>
		<linearGradient id="g37" x1="1021.5" y1="2189.2" x2="1098" y2="2055.6" gradientUnits="userSpaceOnUse">
			<stop offset="0" stop-color="#febbba"/>
			<stop offset="1" stop-color="#ff928e"/>
		</linearGradient>
		<linearGradient id="g38" x1="1028.9" y1="2519.1" x2="1288.8" y2="2604.3" gradientUnits="userSpaceOnUse">
			<stop offset="0" stop-color="#09005d"/>
			<stop offset="1" stop-color="#1a0f91"/>
		</linearGradient>
		<linearGradient id="g39" x1="1212" y1="2467.5" x2="1400" y2="2666.3" gradientUnits="userSpaceOnUse">
			<stop offset="0" stop-color="#09005d"/>
			<stop offset="1" stop-color="#1a0f91"/>
		</linearGradient>
		<linearGradient id="g40" x1="1498.2" y1="2354.2" x2="1576.7" y2="2472.3" gradientUnits="userSpaceOnUse">
			<stop offset="0" stop-color="#4f52ff"/>
			<stop offset="1" stop-color="#4042e2"/>
		</linearGradient>
	</defs>
	<style>
		.s0 { fill: url(#g1) } 
		.s1 { fill: #91b3fa } 
		.s2 { fill: #bdd0fb } 
		.s3 { opacity: .6;fill: #91b3fa } 
		.s4 { opacity: .4;fill: #ffffff } 
		.s5 { fill: url(#g2) } 
		.s6 { fill: url(#g3) } 
		.s7 { fill: url(#g4) } 
		.s8 { fill: url(#g5) } 
		.s9 { fill: url(#g6) } 
		.s10 { fill: url(#g7) } 
		.s11 { fill: url(#g8) } 
		.s12 { fill: #7d97f4 } 
		.s13 { fill: url(#g9) } 
		.s14 { fill: url(#g10) } 
		.s15 { fill: url(#g11) } 
		.s16 { fill: url(#g12) } 
		.s17 { fill: url(#g13) } 
		.s18 { fill: url(#g14) } 
		.s19 { fill: url(#g15) } 
		.s20 { fill: url(#g16) } 
		.s21 { fill: url(#g17) } 
		.s22 { fill: url(#g18) } 
		.s23 { fill: url(#g19) } 
		.s24 { fill: url(#g20) } 
		.s25 { fill: url(#g21) } 
		.s26 { fill: url(#g22) } 
		.s27 { fill: url(#g23) } 
		.s28 { fill: url(#g24) } 
		.s29 { fill: url(#g25) } 
		.s30 { fill: url(#g26) } 
		.s31 { fill: url(#g27) } 
		.s32 { fill: url(#g28) } 
		.s33 { fill: url(#g29) } 
		.s34 { fill: url(#g30) } 
		.s35 { fill: url(#g31) } 
		.s36 { fill: url(#g32) } 
		.s37 { fill: url(#g33) } 
		.s38 { fill: url(#g34) } 
		.s39 { fill: url(#g35) } 
		.s40 { fill: url(#g36) } 
		.s41 { fill: url(#g37) } 
		.s42 { fill: url(#g38) } 
		.s43 { fill: url(#g39) } 
		.s44 { fill: url(#g40) } 
		.s45 { fill: #ffffff } 
	</style>
	<g id="Illustration">
		<g id="&lt;Group&gt;">
			<path id="&lt;Path&gt;" class="s0" d="m2947 2856.5c-58.2 60.1-113.2 98.9-156.6 129.5c-510.9 360.2-1115.4 255.2-1243.9 229.5c-189.7-37.8-556.4-111-821.5-417.3c-401.1-463.4-338.7-1193.6-27.6-1675.5c57-88.2 357.6-577.5 968.6-656c369.8-47.5 800.8 48.3 1112.9 305.2c655.3 539.4 608.6 1628.9 168.1 2084.6z" />
			<g id="&lt;Group&gt;">
				<g id="&lt;Group&gt;">
					<g id="&lt;Group&gt;" style="opacity: .3">
						<path id="&lt;Compound Path&gt;" class="s1" d="m1052 1657.1c3.8-2.3 8.8-1.5 11.5 2.1c6.1 7.9 11.9 16.1 17.3 24.5c2.6 4.1 1.4 9.6-2.7 12.2q0 0-0.1 0.1c-4.1 2.5-9.4 1.3-12-2.8c-5.1-8-10.6-15.8-16.4-23.3c-3-3.8-2.2-9.3 1.6-12.3q0.4-0.3 0.8-0.5zm39.6 65.5q0.4-0.3 0.9-0.5c4.4-2 9.7-0.1 11.7 4.3c4.2 9 8 18.3 11.4 27.7c1.7 4.5-0.7 9.6-5.2 11.2c-4.6 1.7-9.6-0.7-11.3-5.2c-3.2-8.9-6.9-17.7-10.9-26.3c-1.8-4.1-0.3-8.9 3.4-11.2zm24.2 72.6q1.3-0.8 2.8-1.1c4.8-1 9.4 2 10.4 6.8c2.1 9.7 3.8 19.6 5 29.5c0.6 4.8-2.8 9.2-7.6 9.8c-4.9 0.6-9.2-2.8-9.8-7.6c-1.2-9.4-2.8-18.8-4.8-28.1c-0.7-3.7 1-7.4 4-9.3zm7.4 76.2c1.4-0.8 3-1.3 4.8-1.3c4.8 0.1 8.7 4.1 8.6 9c-0.2 9.9-0.8 20-1.8 29.9c-0.5 4.8-4.8 8.3-9.6 7.8c-4.8-0.5-8.3-4.8-7.8-9.6c0.9-9.4 1.5-19 1.6-28.4c0.1-3.1 1.7-5.9 4.2-7.4zm-9.8 76c2-1.2 4.3-1.7 6.7-1.1c4.7 1.2 7.6 5.9 6.5 10.6c-2.4 9.7-5.2 19.4-8.4 28.8c-1.5 4.6-6.5 7.1-11.1 5.5c-4.6-1.5-7.1-6.5-5.5-11.1c3-9 5.6-18.2 7.9-27.3c0.6-2.4 2-4.3 3.9-5.4zm-26.3 71.9c2.5-1.6 5.7-1.8 8.5-0.4c4.4 2.1 6.1 7.4 3.9 11.8c-4.4 8.9-9.3 17.7-14.5 26.2c-2.5 4.1-7.9 5.4-12 2.9c-4.2-2.5-5.5-7.9-3-12.1c5-8.1 9.6-16.4 13.8-24.9c0.8-1.5 1.9-2.7 3.3-3.5zm-263.4 186.5c1.1-0.6 2.3-1 3.5-1.2c9.4-1.2 18.9-2.8 28.1-4.8c4.8-1 9.4 2 10.4 6.8c1.1 4.7-2 9.4-6.7 10.4c-9.7 2.1-19.7 3.8-29.6 5c-4.8 0.6-9.2-2.8-9.8-7.6c-0.4-3.5 1.3-6.8 4.1-8.6zm221.8-122.3c3.1-1.9 7.2-1.8 10.2 0.7c3.7 3 4.3 8.6 1.2 12.3c-6.3 7.7-13.1 15.2-20 22.4c-3.4 3.4-9 3.5-12.4 0.1c-3.5-3.4-3.6-8.9-0.2-12.4c6.6-6.8 13-13.9 19-21.2q1-1.2 2.2-1.9zm-147.4 104.3q0.8-0.5 1.6-0.8c8.9-3.2 17.8-6.9 26.3-10.9c4.4-2.1 9.7-0.2 11.7 4.2c2.1 4.4 0.2 9.7-4.2 11.7c-9.1 4.2-18.4 8.1-27.7 11.5c-4.6 1.7-9.6-0.7-11.3-5.2c-1.5-4 0.2-8.4 3.6-10.5zm92.5-51c3.7-2.3 8.8-1.5 11.5 2.1c3 3.8 2.3 9.4-1.6 12.3c-7.8 6.1-16.1 11.9-24.4 17.3q-0.1 0.1-0.2 0.1c-4 2.5-9.4 1.3-12-2.7c-2.6-4.1-1.4-9.5 2.7-12.2c7.9-5.1 15.7-10.6 23.2-16.4q0.4-0.3 0.8-0.5z" />
						<path id="&lt;Path&gt;" class="s1" d="m762.1 2208c1.4-1 3.2-1.4 5.1-1.3c4.5 0.2 9.1 0.4 13.6 0.5c4.9 0 8.8 4 8.7 8.9c-0.1 4.8-4.1 8.7-8.9 8.6c-4.8 0-9.7-0.2-14.4-0.5c-4.9-0.3-8.6-4.4-8.3-9.2c0.2-3 1.8-5.6 4.2-7z" />
					</g>
					<g id="&lt;Group&gt;" style="opacity: .3">
						<path id="&lt;Path&gt;" class="s1" d="m521.6 2089.6c3.7-2.2 8.4-1.5 11.3 1.8c3 3.4 6 6.9 9.1 10.2c3.4 3.6 3.2 9.1-0.4 12.4c-3.5 3.4-9.1 3.2-12.4-0.4c-3.3-3.5-6.5-7.1-9.6-10.7c-3.2-3.7-2.8-9.3 0.9-12.4q0.6-0.5 1.1-0.9z" />
						<path id="&lt;Compound Path&gt;" class="s1" d="m601.3 1574.9q5.2-3.2 10.5-6.2c4.2-2.4 9.6-1 12 3.2c2.4 4.3 0.9 9.7-3.3 12c-8.2 4.7-16.1 9.7-23.8 14.9c-4 2.7-9.4 1.7-12.2-2.3c-2.7-4-1.7-9.5 2.3-12.2c4.7-3.2 9.6-6.4 14.5-9.4zm52.3-26.4q0.6-0.4 1.3-0.7c9.1-3.6 18.5-6.9 27.8-9.8c4.7-1.4 9.6 1.2 11 5.8c1.4 4.6-1.2 9.6-5.8 11c-8.9 2.7-17.8 5.9-26.4 9.3c-4.5 1.8-9.6-0.3-11.5-4.8c-1.6-4.1 0-8.6 3.6-10.8zm-103.1 64.5c3.6-2.2 8.3-1.6 11.1 1.6c3.3 3.6 3 9.1-0.5 12.4c-6.9 6.2-13.6 12.9-20 19.7c-3.3 3.5-8.8 3.8-12.4 0.5c-3.5-3.4-3.7-8.9-0.4-12.5c6.6-7.2 13.7-14.1 20.9-20.7q0.7-0.6 1.3-1zm175.7-84.7q1.4-0.9 3.2-1.2c9.6-1.6 19.5-2.8 29.3-3.5c4.8-0.4 9 3.2 9.4 8.1c0.4 4.8-3.3 9-8.1 9.4c-9.3 0.7-18.6 1.8-27.8 3.3c-4.8 0.8-9.3-2.5-10.1-7.2c-0.6-3.7 1.1-7.1 4.1-8.9zm-225.4 141.2c2.9-1.8 6.7-1.8 9.6 0.3c4 2.8 5 8.3 2.2 12.2c-5.3 7.6-10.4 15.6-15.1 23.6c-2.5 4.2-7.8 5.6-12 3.2c-4.2-2.4-5.6-7.8-3.2-12c4.9-8.5 10.3-16.8 15.9-24.8c0.7-1.1 1.6-1.9 2.6-2.5zm-36.2 66.1c2.3-1.5 5.3-1.8 8-0.7c4.4 1.9 6.6 7 4.7 11.5c-3.5 8.6-6.7 17.5-9.6 26.3c-1.4 4.6-6.4 7.2-11 5.7c-4.6-1.4-7.2-6.4-5.7-11c3-9.3 6.4-18.6 10.1-27.7c0.7-1.8 2-3.2 3.5-4.1zm-20.9 72.3c1.7-1 3.9-1.5 6.1-1.1c4.8 0.8 8 5.3 7.1 10.1c-1.5 9.2-2.8 18.6-3.6 27.8c-0.4 4.8-4.7 8.4-9.5 8c-4.8-0.4-8.4-4.7-8-9.5c0.9-9.8 2.2-19.6 3.8-29.3c0.5-2.6 2-4.7 4.1-6zm-4.6 75.2c1.2-0.7 2.6-1.2 4.1-1.2c4.9-0.3 9 3.5 9.2 8.3c0.5 9.3 1.3 18.7 2.6 27.9c0.6 4.8-2.8 9.2-7.6 9.9c-4.8 0.6-9.2-2.8-9.8-7.6c-1.3-9.7-2.2-19.5-2.7-29.3c-0.2-3.4 1.5-6.3 4.2-8zm12 74.5q1-0.7 2.2-1c4.7-1.3 9.5 1.4 10.8 6.1c2.5 8.9 5.4 17.9 8.7 26.6c1.6 4.6-0.7 9.6-5.2 11.3c-4.6 1.7-9.6-0.6-11.3-5.2c-3.4-9.1-6.5-18.6-9.1-28c-1.1-3.9 0.6-7.8 3.9-9.8zm28 69.9q0.2-0.2 0.5-0.3c4.2-2.3 9.6-0.7 11.8 3.6c3.3 6.1 6.7 12.1 10.3 17.9q2 3.2 4 6.3c2.6 4 1.4 9.5-2.7 12.1c-4 2.8-9.5 1.5-12.1-2.6q-2.1-3.3-4.2-6.6c-3.7-6.1-7.4-12.5-10.8-18.8c-2.2-4.1-0.7-9.2 3.2-11.6z" />
						<path id="&lt;Path&gt;" class="s1" d="m801.7 1524.5c1.4-0.9 3.2-1.4 5.1-1.3c4.7 0.3 9.6 0.7 14.4 1.2c4.8 0.5 8.3 4.8 7.8 9.7c-0.5 4.8-4.8 8.3-9.6 7.8c-4.6-0.5-9.2-0.8-13.7-1.1c-4.8-0.3-8.5-4.5-8.2-9.3c0.2-3 1.8-5.5 4.2-7z" />
					</g>
					<g id="&lt;Group&gt;">
						<path id="&lt;Compound Path&gt;" class="s1" d="m901.6 1637.3c1.7 0.5 2.8 2.1 2.8 3.9l-0.2 49.9c19.8 12.5 37.6 28.3 52.7 47l49.7-6c1.7-0.2 3.4 0.8 4.1 2.3l26.2 54c0.7 1.6 0.4 3.5-0.9 4.7l-35.4 35.2c5.3 23.5 6.5 47.3 4.1 70.5l39.3 30.9c1.3 1.1 1.9 2.9 1.3 4.6l-19.7 56.6c-0.6 1.7-2.1 2.8-3.9 2.8l-50-0.2c-12.5 19.8-28.2 37.6-46.9 52.8l5.9 49.6c0.2 1.7-0.7 3.4-2.3 4.2l-54 26.1c-1.5 0.7-3.4 0.4-4.7-0.8l-35.2-35.5c-23.4 5.3-47.2 6.5-70.4 4.1l-31 39.3c-1 1.4-2.9 1.9-4.5 1.3l-56.7-19.7c-1.6-0.6-2.7-2.1-2.7-3.9l0.1-50c-19.7-12.5-37.6-28.2-52.7-46.9l-49.6 5.9c-1.7 0.2-3.4-0.7-4.2-2.3l-26.1-53.9c-0.8-1.6-0.4-3.5 0.8-4.7l35.4-35.3c-5.2-23.4-6.5-47.2-4-70.4l-39.3-30.9c-1.4-1.1-1.9-3-1.4-4.6l19.7-56.6c0.6-1.7 2.2-2.8 3.9-2.8l50 0.1c12.5-19.7 28.3-37.6 46.9-52.7l-5.9-49.6c-0.2-1.7 0.7-3.4 2.3-4.2l54-26.1c1.6-0.8 3.5-0.4 4.7 0.8l35.2 35.4c23.5-5.2 47.3-6.5 70.5-4l30.9-39.3c1.1-1.4 2.9-1.9 4.6-1.3z" />
						<g id="&lt;Group&gt;">
							<path id="&lt;Compound Path&gt;" fill-rule="evenodd" class="s2" d="m755.2 1824.7c25-15.4 58.3-10.5 77.8 12.7c21.3 25.4 18 63.5-7.5 84.9c-12.3 10.3-28 15.2-44 13.8c-16-1.4-30.6-8.9-40.9-21.3c-21.4-25.4-18-63.5 7.4-84.9q3.5-2.9 7.2-5.2zm55.7 90.8q2.9-1.8 5.6-4c19.5-16.4 22.1-45.6 5.7-65.1c-16.4-19.5-45.6-22.1-65.1-5.7c-19.6 16.4-22.1 45.6-5.7 65.1c7.9 9.4 19 15.2 31.3 16.3c10 0.9 19.8-1.4 28.2-6.6z" />
						</g>
						<path id="&lt;Path&gt;" class="s2" d="m708.5 1751.2q6.5-4 13.4-7.3q2.2-1.1 4.4-2c7.2-3.3 14.7-5.9 22.4-7.9q0.1-0.1 0.3-0.1q0.4-0.1 0.9-0.2q0.8-0.3 1.7-0.5c1.5-0.3 3 0.3 3.8 1.6q0.3 0.5 0.4 1c0.5 1.9-0.7 3.8-2.5 4.3c-9.7 2.3-19.3 5.7-28.3 10.1c-45.1 21.8-73.3 64.5-78.8 110.9c-3 25.8 1 52.7 13.2 77.7q3.2 6.6 6.9 12.8c17 27.5 42.8 48.3 73.8 59.1c35.6 12.4 73.9 10.1 107.8-6.3c70.1-33.9 99.5-118.5 65.6-188.6q-3.1-6.4-6.8-12.5c-10.9-17.6-25.4-32.7-42.7-44q-0.7-0.5-1.1-1.1c-0.7-1.1-0.7-2.6 0.1-3.8c1-1.6 3.2-2.1 4.8-1c18.2 11.9 33.5 27.7 44.8 46.2q4 6.4 7.3 13.2c35.6 73.5 4.6 162.4-68.9 197.9c-35.6 17.3-75.9 19.6-113.2 6.6c-32.6-11.3-59.6-33.1-77.4-62q-4-6.5-7.4-13.4c-17.2-35.7-19.5-75.9-6.5-113.3c11.3-32.5 33.1-59.6 62-77.4z" />
					</g>
				</g>
				<g id="&lt;Group&gt;">
					<g id="&lt;Group&gt;" style="opacity: .3">
						<path id="&lt;Path&gt;" class="s1" d="m834.6 1146.9c1.1-2 3.5-3.1 5.9-2.6c4.5 1.1 9 2.3 13.5 3.6c2.8 0.9 4.5 3.9 3.6 6.8c-0.8 2.9-3.9 4.5-6.7 3.6c-4.3-1.2-8.6-2.4-12.8-3.4c-3-0.7-4.8-3.6-4.1-6.5q0.2-0.8 0.6-1.5z" />
						<path id="&lt;Compound Path&gt;" class="s1" d="m874.2 1160.2c1.3-2.4 4.3-3.4 6.9-2.3c7.2 3.2 14.4 6.8 21.3 10.7q2.2 1.2 4.4 2.5c2.5 1.6 3.2 5 1.9 7.5c-1.6 2.6-4.9 3.4-7.5 1.9q-2-1.3-4.1-2.4c-6.6-3.8-13.5-7.2-20.4-10.3c-2.7-1.2-4-4.4-2.8-7.1q0.1-0.3 0.3-0.5zm48.4 28.8q0.2-0.3 0.4-0.6c1.9-2.4 5.3-2.8 7.7-1c7.6 5.9 14.9 12.3 21.7 19.1c2.1 2.1 2.1 5.5 0 7.6c-2.1 2.2-5.6 2.2-7.7 0.1c-6.5-6.5-13.4-12.6-20.7-18.2c-2.2-1.7-2.7-4.7-1.4-7zm40 39.8q0.5-1 1.4-1.6c2.3-1.9 5.7-1.5 7.6 0.9c5.9 7.6 11.4 15.6 16.3 23.8c1.6 2.6 0.8 5.9-1.8 7.5c-2.6 1.5-5.9 0.7-7.5-1.9c-4.7-7.9-9.9-15.5-15.6-22.7c-1.4-1.8-1.5-4.2-0.4-6zm29 48.3c0.5-1 1.4-1.8 2.5-2.3c2.7-1.2 5.9 0 7.1 2.8c3.9 8.8 7.3 17.9 10.1 27.1c0.9 2.9-0.8 5.9-3.6 6.8c-2.9 0.8-5.9-0.8-6.8-3.7c-2.6-8.7-5.9-17.4-9.6-25.8c-0.7-1.7-0.6-3.5 0.3-4.9zm16.3 54c0.7-1.4 2.1-2.4 3.8-2.7c2.9-0.5 5.7 1.5 6.2 4.4c1.7 9.5 2.7 19.1 3.2 28.7c0.1 3-2.2 5.6-5.2 5.7c-3 0.2-5.5-2.2-5.6-5.2c-0.5-9.1-1.5-18.3-3.1-27.3c-0.2-1.3 0.1-2.6 0.7-3.6zm2.7 56.2c1-1.7 2.9-2.9 5.1-2.7c3 0.2 5.2 2.8 5 5.8c-0.7 9.6-2 19.2-3.9 28.6c-0.6 3-3.5 4.9-6.4 4.3c-3-0.6-4.9-3.5-4.3-6.4c1.8-9 3.1-18.2 3.8-27.3q0.1-1.3 0.7-2.3zm-11.1 55.2c1.2-2.2 3.9-3.3 6.4-2.4c2.8 0.9 4.4 4 3.4 6.8c-3 9.1-6.7 18.1-10.8 26.8c-1.4 2.7-4.6 3.9-7.3 2.6c-2.7-1.3-3.8-4.6-2.5-7.3c3.9-8.3 7.4-16.8 10.3-25.5q0.2-0.5 0.5-1zm-41 73.7q0.2-0.4 0.5-0.8c5-6.1 9.9-12.6 14.3-19.3q1-1.5 1.9-3c1.7-2.5 5-3.3 7.5-1.6c2.6 1.6 3.4 5 1.7 7.5q-1 1.6-2.1 3.1c-4.6 7-9.6 13.8-14.9 20.2c-2 2.3-5.4 2.6-7.7 0.7c-2-1.7-2.5-4.6-1.2-6.8z" />
					</g>
					<g id="&lt;Group&gt;" style="opacity: .3">
						<path id="&lt;Compound Path&gt;" class="s1" d="m581.4 1259.7c1.5-2.6 4.8-3.5 7.4-2.1c2.6 1.5 3.6 4.8 2.1 7.4c-4.3 7.9-8.2 16.1-11.6 24.5c-1.1 2.7-4.3 4.1-7.1 3c-2.7-1.1-4.1-4.3-3-7.1c3.6-8.7 7.6-17.4 12.2-25.6q0-0.1 0-0.1zm14.9-23.5q0.1-0.2 0.3-0.5c5.5-7.7 11.5-15.1 17.9-22c2.1-2.2 5.5-2.4 7.7-0.4c2.2 2.1 2.3 5.5 0.3 7.7c-6.1 6.7-11.8 13.7-17.1 21.1c-1.7 2.4-5.1 2.9-7.6 1.2c-2.2-1.6-2.9-4.7-1.5-7.1zm-35.5 74.9c1.2-2.1 3.7-3.2 6.1-2.5c2.9 0.7 4.6 3.7 3.9 6.6c-2.4 8.7-4.2 17.7-5.4 26.6c-0.4 3-3.1 5-6.1 4.6c-3-0.4-5.1-3.1-4.6-6.1c1.2-9.4 3.1-18.7 5.6-27.9q0.1-0.7 0.5-1.3zm73-115.7q0.5-0.8 1.2-1.4c7.2-6.2 14.9-11.9 22.8-17.1c2.5-1.7 5.9-1 7.5 1.5c1.6 2.5 1 5.9-1.5 7.5c-7.6 5-14.9 10.5-21.7 16.3c-2.3 2-5.7 1.7-7.7-0.6c-1.5-1.8-1.7-4.3-0.6-6.2zm-80.6 170.6c0.9-1.7 2.7-2.8 4.8-2.7c3 0 5.4 2.5 5.3 5.5c-0.1 9 0.3 18.1 1.2 27.1c0.3 2.9-1.8 5.6-4.8 5.9c-3 0.3-5.7-1.8-6-4.8c-1-9.4-1.4-19-1.2-28.4c0-0.9 0.2-1.8 0.7-2.6zm5.8 55.1c0.7-1.2 1.9-2.2 3.5-2.6c2.9-0.6 5.8 1.2 6.5 4.1c2 8.8 4.6 17.6 7.6 26c1 2.8-0.4 6-3.3 7c-2.8 1-5.9-0.5-6.9-3.3c-3.2-8.9-5.9-18-8-27.3c-0.3-1.3-0.1-2.7 0.6-3.9zm18.8 52.2c0.5-0.9 1.3-1.7 2.3-2.2c2.6-1.3 5.9-0.2 7.3 2.4c4 8.1 8.6 16 13.6 23.5c1.7 2.4 1 5.8-1.5 7.5c-2.5 1.7-5.8 1-7.5-1.5c-5.3-7.9-10.1-16.1-14.3-24.6c-0.9-1.7-0.8-3.6 0.1-5.1z" />
						<path id="&lt;Path&gt;" class="s1" d="m680.4 1164.8c0.5-0.9 1.3-1.7 2.3-2.2c4.1-2.1 8.4-4 12.6-5.8c2.7-1.2 5.9 0.1 7.1 2.9c1.2 2.7-0.1 5.9-2.9 7.1c-4 1.7-8 3.6-12 5.5c-2.7 1.4-6 0.2-7.3-2.4c-0.8-1.7-0.7-3.6 0.2-5.1z" />
					</g>
					<g id="&lt;Group&gt;">
						<path id="&lt;Compound Path&gt;" class="s1" d="m778.7 1196.6c1.1-0.2 2.3 0.3 2.8 1.4l16.1 29.3c15.6 1 31.1 4.5 46 10.5l27.2-19.4c1-0.7 2.2-0.7 3.2-0.1l32.7 23.3c1 0.6 1.4 1.9 1.1 3l-9.4 32.1c10.6 12 19 25.6 25.1 40l33 5.4c1.1 0.2 2 1.1 2.2 2.3l6.8 39.5c0.2 1.2-0.4 2.3-1.4 2.9l-29.4 16c-0.9 15.6-4.4 31.2-10.5 46.1l19.5 27.2c0.7 0.9 0.7 2.2 0 3.1l-23.2 32.8c-0.7 0.9-1.9 1.3-3 1l-32.1-9.4c-12.1 10.7-25.6 19.1-40 25.1l-5.5 33c-0.2 1.2-1.1 2.1-2.2 2.3l-39.6 6.7c-1.1 0.2-2.3-0.4-2.8-1.4l-16.1-29.3c-15.6-1-31.1-4.5-46-10.5l-27.2 19.4c-1 0.7-2.2 0.7-3.2 0l-32.7-23.2c-1-0.7-1.4-1.9-1.1-3l9.4-32.1c-10.6-12-19-25.6-25.1-40l-33-5.4c-1.1-0.2-2-1.1-2.2-2.3l-6.8-39.5c-0.2-1.2 0.4-2.3 1.4-2.9l29.4-16c0.9-15.6 4.4-31.2 10.5-46.1l-19.5-27.2c-0.7-0.9-0.7-2.2 0-3.2l23.2-32.7c0.7-0.9 1.9-1.4 3-1l32.1 9.4c12.1-10.7 25.6-19.1 40-25.1l5.5-33c0.2-1.2 1.1-2.1 2.2-2.3z" />
						<path id="&lt;Compound Path&gt;" fill-rule="evenodd" class="s3" d="m752.7 1353.3c4.3-7.6 11-13.6 19.1-17.2c10.1-4.4 21.2-4.7 31.4-0.7c21.1 8.1 31.7 32 23.5 53.1c-8.2 21.1-32 31.6-53.1 23.4c-10.3-3.9-18.3-11.6-22.8-21.7c-4.4-10-4.7-21.2-0.7-31.4q1.1-2.9 2.6-5.5zm62 35.3q1-1.9 1.9-4c6-15.6-1.8-33.1-17.3-39.1c-7.5-2.9-15.7-2.7-23.1 0.5c-7.4 3.3-13 9.2-16 16.7c-2.9 7.6-2.7 15.8 0.6 23.1c3.2 7.4 9.2 13.1 16.7 16c14.1 5.5 29.9-0.4 37.2-13.2z" />
						<path id="&lt;Path&gt;" class="s2" d="m699.6 1324.1q2.6-4.5 5.6-8.8c4-5.7 8.7-11 13.7-15.7q0.4-0.3 0.7-0.6c1.8-1.7 4.4-1.9 6.4-0.7q0.7 0.4 1.3 1c2 2.2 1.8 5.7-0.4 7.7c-4.7 4.4-9.1 9.3-12.8 14.6q-0.3 0.4-0.6 0.9c-8.8 12.6-14.1 27-15.8 41.9c-0.9 8.1-0.7 16.3 0.7 24.6q0 0.1 0 0.2q0.1 0.3 0.1 0.6c4.1 24 17.3 45.1 37.2 59.2q3.9 2.8 8 5.1c18.2 10.3 39.3 14 60.2 10.5c24.1-4.1 45.1-17.3 59.2-37.2c14.2-19.9 19.7-44.2 15.6-68.2c-4.1-24.1-17.3-45.1-37.2-59.3q-3.8-2.7-7.8-4.9c-11.7-6.7-24.6-10.6-38-11.7q-1.2-0.1-2.2-0.7c-1.8-1-2.9-2.9-2.8-5.1c0.3-3 2.9-5.2 5.9-5c14.9 1.2 29.4 5.6 42.4 13q4.5 2.6 8.8 5.6c22.3 15.8 37 39.3 41.6 66.3c4.6 26.9-1.6 54-17.4 76.2c-15.8 22.3-39.3 37.1-66.3 41.7c-23.4 4-47-0.2-67.4-11.8q-4.5-2.6-8.9-5.6c-43.1-30.6-55.3-88.8-29.8-133.8z" />
					</g>
				</g>
			</g>
			<g id="&lt;Group&gt;">
				<g id="&lt;Group&gt;">
					<path id="&lt;Path&gt;" class="s2" d="m754.9 1015.9c-0.3-20.3 27-27.5 36.7-9.6c94 173 354.7 618.8 645.5 820.6c473.3 328.6 879 945 716.1 1349.4q-1371.6 58.2-1398.3-2160.4z" />
					<path id="&lt;Path&gt;" class="s4" d="m853.6 1267.1c1.7-0.6 3.7 0.3 4.3 2l0.3 0.8c1.6 4.3 3.9 9.6 5.9 14.5l6.4 15l13.2 29.8l27 59.3c18.3 39.3 37.2 78.5 56.3 117.5c38.2 78 77.8 155.4 118.9 231.9c82.6 152.8 169.4 303.4 264 449c47.6 72.6 95.6 144.9 146.6 215.2c50.9 70.2 103.5 139.3 158.8 206.1c55.3 66.9 112.3 132.3 173.1 194.2c60.5 62.1 124.1 121.3 190.8 176.9c1.4 1.2 1.7 3.3 0.6 4.8c-1.2 1.5-3.4 1.7-4.9 0.6c-69-53.2-134.1-111.4-196.6-172.3c-62.1-61.3-120.5-126.1-177.2-192.4c-111.9-133.7-214.3-275.3-308.6-421.8c-47.3-73.2-92.2-147.9-136-223.2c-43.7-75.4-85.8-151.7-125.8-229c-40.1-77.4-79-155.3-115.7-234.2c-18.4-39.5-36.3-79.2-53.8-119.1c-8.6-19.9-17.3-39.9-25.6-60l-12.3-30.3l-6-15.2c-2-5.2-4-10-5.8-15.9c-0.5-1.7 0.4-3.6 2.1-4.2z" />
				</g>
				<g id="&lt;Group&gt;">
					<path id="&lt;Path&gt;" class="s1" d="m1142.6 473.6c3.5-19.1 30.5-20.9 36.3-2.3c56.6 179.7 219.7 646.1 455.7 888.9c384.2 395.4 652.2 1048.6 425.1 1398.5q-1298.7-196.9-917.1-2285.1z" />
					<path id="&lt;Path&gt;" class="s4" d="m1189.3 727.5c1.8-0.3 3.5 1 3.8 2.8l0.1 0.7c0.7 4.4 1.9 9.8 2.9 14.8l3.3 15.2l6.9 30.4l14.5 60.6c10 40.3 20.5 80.6 31.3 120.7c21.6 80.3 44.6 160.1 69.2 239.5c49.6 158.7 103.5 316 165.6 470c31.4 76.9 63.2 153.6 98.2 229c35 75.2 71.7 149.7 111.3 222.7c39.7 72.8 81.3 144.7 126.9 214.1c45.5 69.4 94.3 136.6 146.7 201.1h0.1c1.1 1.4 0.9 3.4-0.4 4.6c-1.4 1.2-3.5 1.1-4.7-0.3c-55.2-62.6-105.6-129.2-153.2-197.8c-47.1-68.9-90.1-140.5-131.1-213.1c-80.7-146.1-150.9-297.8-212.5-452.8c-31-77.4-59.5-155.8-86.8-234.5c-27.2-78.8-52.8-158.1-76.1-238.1c-23.5-80-45.7-160.3-65.8-241.1c-9.9-40.5-19.5-81-28.6-121.7c-4.4-20.3-8.9-40.7-13-61.1l-6.1-30.7l-2.8-15.4c-0.8-5.2-1.8-10-2.5-15.9c-0.2-1.8 1-3.4 2.8-3.7z" />
				</g>
			</g>
			<g id="&lt;Group&gt;">
				<g id="&lt;Group&gt;">
					<path id="&lt;Path&gt;" class="s5" d="m1757.4 3201.4h896.7c8 0 14.5 10.7 14.5 23.9c0 13.3-6.5 24-14.5 24h-896.7c-8 0-14.5-10.7-14.5-24c0-13.2 6.5-23.9 14.5-23.9z" />
					<path id="&lt;Path&gt;" class="s6" d="m1822.2 2957.9h751.5c22.6 0 41 25.9 41 57.9v185.6h-833.5v-185.6c0-32 18.4-57.9 41-57.9z" />
					<path id="&lt;Path&gt;" class="s7" d="m1877.8 2854.5h640.3c22.6 0 41 25.9 41 57.9v45.5h-722.3v-45.5c0-32 18.4-57.9 41-57.9z" />
					<path id="&lt;Path&gt;" class="s8" d="m1930.2 2562.1c0-7 5.7-12.7 12.6-12.7h519c7 0 12.7 5.7 12.7 12.7v292.4h-544.3z" />
				</g>
				<g id="&lt;Group&gt;">
					<g id="&lt;Group&gt;">
						<path id="&lt;Path&gt;" class="s9" d="m3089.9 1676.6c13.3 12.2 14.5 32.8 2.6 46.4l-744.8 869.8c-12.3 14.2-33.9 15.4-47.8 2.6l-63.3-58.3l820.3-890.9z" />
						<path id="&lt;Path&gt;" class="s10" d="m2987.9 1397.2c25.4-26.4 67.2-27.7 94.2-2.9l66.8 61.5c26.9 24.8 29.1 66.6 4.8 94l-888.7 1013.5l-186.3-171.6c-15.1-13.9-15.8-37.5-1.5-52.3z" />
						<path id="&lt;Path&gt;" class="s11" d="m2924.2 1609.5l7 6.5c21.6 19.9 23 53.6 3.1 75.2l-469 509.4c-19.9 21.6-53.6 23-75.2 3.1l-7-6.5c-21.6-19.9-23-53.6-3.1-75.2l469-509.4c19.9-21.6 53.6-23 75.2-3.1z" />
						<path id="&lt;Path&gt;" class="s12" d="m2917.9 1603.7l19.6 18.1l-541.1 587.7l-19.7-18.1z" />
					</g>
					<g id="&lt;Group&gt;">
						<path id="&lt;Path&gt;" class="s13" d="m2357 2309.1c96.5 88.9 102.6 239.1 13.8 335.5c-88.8 96.5-239 102.7-335.5 13.9c-96.4-88.9-102.6-239.1-13.8-335.5c88.8-96.5 239-102.7 335.5-13.9z" />
						<path id="&lt;Path&gt;" class="s12" d="m2319 2350.4c73.7 67.8 78.4 182.6 10.6 256.2c-67.9 73.7-182.6 78.5-256.3 10.6c-73.7-67.8-78.4-182.6-10.6-256.2c67.9-73.7 182.6-78.5 256.3-10.6z" />
					</g>
				</g>
				<g id="&lt;Group&gt;">
					<g id="&lt;Group&gt;">
						<path id="&lt;Path&gt;" class="s14" d="m3100.1 1453.8l-46.8 50.8c-10.2 11.2-27.6 11.6-38.4 1.1l-653.6-646.8c-10.4-10.1-10.8-26.7-1-37.3l24.4-26.6z" />
						<path id="&lt;Path&gt;" class="s15" d="m2423.4 591.2l791.2 693.8c12.4 10.9 13.4 29.9 2.3 42l-137.8 149.6l-778.3-752.3c-21.2-20.3-22.2-53.9-2.3-75.6l49.4-53.6c19.9-21.6 53.5-23.4 75.5-3.9z" />
						<path id="&lt;Path&gt;" class="s16" d="m2573.3 776.9l427.7 393.8c18.9 17.4 20.1 46.9 2.7 65.8c-17.4 18.9-46.9 20.1-65.8 2.7l-427.7-393.8c-18.9-17.4-20.2-46.9-2.7-65.8c17.4-18.9 46.9-20.1 65.8-2.7z" />
						<path id="&lt;Path&gt;" class="s12" d="m3011 1228.6l-14.6 15.8l-496.2-456.9l14.6-15.8z" />
					</g>
					<g id="&lt;Group&gt;">
						<path id="&lt;Path&gt;" class="s17" d="m3212.6 1285.5c68.6 63.1 73 170 9.8 238.6c-63.2 68.6-170 73-238.6 9.8c-68.6-63.1-73-170-9.9-238.6c63.2-68.6 170.1-73 238.7-9.8z" />
						<path id="&lt;Path&gt;" class="s12" d="m3185.6 1314.8c52.4 48.3 55.7 129.9 7.5 182.3c-48.3 52.4-129.9 55.8-182.3 7.5c-52.4-48.2-55.8-129.9-7.5-182.3c48.2-52.4 129.8-55.7 182.3-7.5z" />
					</g>
				</g>
				<g id="&lt;Group&gt;">
					<path id="&lt;Path&gt;" class="s18" d="m1890.4 1095.2l300.5-469.9c4.7-7.3 17.3-7.3 28 0l131.3 90.8l-343 459.8c-9.2 12.6-31.8 12.1-50.8-1l-47.1-32.6c-19-13.1-27.4-34.1-18.9-47.1z" />
				</g>
				<g id="&lt;Group&gt;">
					<path id="&lt;Path&gt;" class="s19" d="m2247 478.7c70.6-42.9 162.7-20.5 205.7 50.1c42.9 70.6 20.5 162.7-50.1 205.6c-70.6 43-162.7 20.6-205.7-50c-42.9-70.7-20.5-162.7 50.1-205.7z" />
					<path id="&lt;Path&gt;" class="s12" d="m2265.4 508.9c53.9-32.8 124.3-15.7 157.1 38.3c32.8 53.9 15.7 124.2-38.3 157.1c-53.9 32.8-124.3 15.6-157.1-38.3c-32.8-53.9-15.6-124.3 38.3-157.1z" />
				</g>
				<g id="&lt;Group&gt;">
					<path id="&lt;Path&gt;" class="s20" d="m1996.1 1181.8l75 114.6l-194 145.1l-26.4-24.5l155.4-132.2l-58.9-88.7z" />
					<path id="&lt;Path&gt;" class="s21" d="m2049 1132.8l-141.4-94.3c-1-0.7-1.3-2-0.6-3l31.4-47.1c0.7-1 2-1.3 3-0.6l141.5 94.3c1 0.7 1.2 2.1 0.6 3.1l-31.4 47c-0.7 1-2 1.3-3.1 0.6z" />
					<path id="&lt;Path&gt;" class="s22" d="m1887.1 1162.9l-104.8-18.8l-59.5 195.1l-33-14.5l56.1-235.6l134.9 23.2z" />
					<path id="&lt;Path&gt;" class="s23" d="m2020.9 1178.2c-10 19.9-27.7 35.9-50.6 43.2c-45.3 14.4-93.6-10.5-108.1-55.8c-9.6-30.1-1.7-61.7 18-83.6z" />
					<path id="&lt;Path&gt;" class="s24" d="m2049.6 1126l20.7 13.8c4.1 2.7 5.1 8.5 2.2 12.8l-28 42c-2.9 4.3-8.6 5.7-12.7 2.9l-180.4-120.3c-4.1-2.7-5-8.5-2.1-12.8l28-42c2.9-4.3 8.6-5.7 12.6-3l22.7 15.1z" />
				</g>
			</g>
			<g id="&lt;Group&gt;">
				<g id="&lt;Group&gt;">
					<path id="&lt;Path&gt;" class="s12" d="m952.9 2786.8h35.4v382.7h-35.4z" />
					<path id="&lt;Path&gt;" class="s12" d="m815.6 3155.9c0-1.1 0.9-2 2-2h306.2c1 0 1.8 0.8 1.8 1.8v21.2h-310z" />
					<path id="&lt;Path&gt;" class="s12" d="m757 2736.1c0-22.3 18.2-40.5 40.4-40.5h333.4c22.2 0 40.4 18.2 40.4 40.5v36.5c0 22.3-18.2 40.5-40.4 40.5h-333.4c-22.2 0-40.4-18.2-40.4-40.5z" />
				</g>
				<g id="&lt;Group&gt;">
					<path id="&lt;Path&gt;" class="s25" d="m1167.8 3101.7q101 72.9 83.5 121.8q-110.6-47.7-124-85.3q-13.3-37.5 2.3-54.1z" />
					<path id="&lt;Path&gt;" class="s26" d="m1197.3 3066.3l-19.7 37.2c-4.1 7.7-12.9 11.7-21.4 9.7c-6.1-1.3-10.5-3.2-13.7-5.2c-6.5-4.1-9-12.3-6.5-19.5l16.6-47.8z" />
					<path id="&lt;Path&gt;" class="s27" d="m991.7 2610.6q207.6 36 296.7 118.3q89 82.2-81.7 344.7q-28-0.2-61.9-29.3q101.2-197.3 14-254.9q-98.2-64.7-211.2-79.3l42.1-93.1z" />
					<path id="&lt;Path&gt;" class="s28" d="m1270.2 3227.9c-14.2 10.2-36.9 18.9-69.3 9.5c-44.1-12.7-76.9-46.7-91.7-64.6q-4.7-14-0.3-22.1q18.4-12.5 29-10.5c10.7 1.9 73.6 46 95.8 56.3c14.8 6.8 28.7 19.5 36.5 31.4z" />
					<path id="&lt;Path&gt;" class="s29" d="m1270.2 3227.9c8.5 12.9 9.7 24.8-3.2 26.8c-16.1 2.5-91.6-10.3-131.1-45.9c-16-14.3-23.4-26.5-26.7-36c14.8 17.9 47.6 51.9 91.7 64.6c32.4 9.4 55.1 0.7 69.3-9.5z" />
					<path id="&lt;Path&gt;" class="s30" d="m1133.7 3101.7l14.3 48.9c1.9 6.5-1.8 13.5-8.3 15.4c-4.4 1.2-9.2 1.6-13.4 1.6c-6.6-0.1-12.7-3.5-16.1-9.1c-7.4-11.8-19.9-32.8-20.1-38.9z" />
					<path id="&lt;Path&gt;" class="s31" d="m1006.7 2609.6l-12.4 31.1c-6.8 17.1-9.4 34.7 5.3 45.8c51.3 38.9 78 108.4 96.2 156.5q20.9 55.6 52.7 272.2q-14.7 15.7-53.9 19.4c-55.8-51.3-97.5-196.5-122-271.1c-24.6-74.7-134.6-116.9-180.7-154.4q-46.1-37.5 0-160.8z" />
					<path id="&lt;Path&gt;" class="s32" d="m1274.5 2516.4c-19.9 4.3-42.5 3.9-67.1-4.9q-97.6-34.6-103.8-100.7l117.3-82.9c-1.4 4.9-25.5 128.5 51.8 123.8c-4.9 17.6-6.7 39.9 1.8 64.7z" />
					<path id="&lt;Path&gt;" class="s33" d="m1472.4 2498.3q-15.4 12.1-27.6 0q-12.2-12.1-43.4-43.5q6.5 29 5.3 33.8c-1.1 4.9-16.8 0.6-14.7-12.8c1.1-6.9-4.7-13.3-10.7-18.1c-5.9-4.6-14.5-3.6-19.3 2.1c-13.4 16.1-44.3 47.3-87.5 56.6c-8.5-24.8-6.7-47.1-1.8-64.7c21.1-1.3 49.6-12 88.1-37.2q32.6-20 61.4 0q28.8 20.1 50.2 83.8z" />
					<path id="&lt;Path&gt;" class="s34" d="m912.3 2137.2q112.4-45 321.8 127.8q17.4 36.2-1.6 68.4c-19.1 32.2-200.8 189.1-225.8 276.2q-108.3 35.1-220.2-48.3q9.8-242.2 125.8-424.1z" />
					<path id="&lt;Path&gt;" class="s35" d="m1209.4 2124.1l-38.8 80c-5.2 10.9-15.9 18.1-27.9 19.1c-40.4 3.1-58.7-19.7-66.4-35.4c-3.8-7.7-2.5-17 3-23.7l55.3-67.1z" />
					<path id="&lt;Path&gt;" class="s36" d="m739.8 2527.7c-16-10.3-29.9-25.6-40.3-47.5q-72.8-152.9 212.8-343l32.1 115.7q-132.2 118.6-119.2 171.8c-25.7 12.7-62.4 41.1-85.4 103z" />
					<path id="&lt;Path&gt;" class="s37" d="m825.1 2416.9c-1.4 0-2.7-0.9-3-2.4c-13.4-54.3 114.7-169.9 120.1-174.7c1.3-1.2 3.3-1.1 4.4 0.2c1.2 1.3 1.1 3.3-0.2 4.4c-1.3 1.2-130.7 117.9-118.2 168.6c0.4 1.7-0.7 3.4-2.3 3.8q-0.4 0.1-0.8 0.1z" />
					<path id="&lt;Path&gt;" class="s38" d="m1157.5 2521.6c-32.5 21.8-61.2-48.9-81.3-45.8c-13.7 2.1-39.1-2.4-53.8-5.4c-7.2-1.6-14.8-0.2-21 3.8c-38.1 24.2-179.1 106.2-261.6 53.5c23-61.9 59.7-90.3 85.4-103c1 3.8 2.7 7.4 5.2 10.5q38.3 45.8 195.1-15.1q104.2-21.4 132 101.5z" />
					<g id="&lt;Group&gt;">
						<path id="&lt;Path&gt;" class="s39" d="m1255.1 1998.4q0.5 2.2-13 148.9l-83.6-9.5l-7.8-141q95.1-34.5 104.4 1.6z" />
						<path id="&lt;Path&gt;" class="s40" d="m1172.4 2026.1l-1.6 74.5q-0.1 1.4 0.3 2.8c1.4 5.7 7.9 24.8 27 17c17.4-7 33.4-13.2 45.2-11c5.2 1 8.9 5.8 8.4 11.2c-1.2 13.3-4.6 43.3-11.4 68.9c-1.4 5.2-6.6 8.4-11.9 7.5c-16-2.8-49.5-9.7-75.1-21.5c-3.5-1.6-5.9-5-6.1-8.8c-1.3-18.6-5.3-75.2-8.8-90.8c-3.4-14.7-22.6-21.6-30.8-23.9c-2.7-0.7-5-2.6-6.3-5.1c-4.7-8.7-12.1-29.4 13.8-41c5.4-2.5 7.6-8.8 5-14.2c-5.1-10.6-8.7-27.2 11-38.8c20-11.7 37-2.2 46.5 6c3.8 3.3 9.4 3.2 13.3 0.1c2.3-1.8 5.4-2.7 9.4-0.7c5.4 2.6 11.9-0.3 14-6c3.9-10.9 12.9-23.1 33.9-21.8c37.2 2.2 45.8 42.3 38.8 67.1c-7 24.8-47.3 20-68.3 10.2c-16-7.4-34.3 4.2-42.2 10.3c-2.5 1.9-4 4.8-4.1 8z" />
						<path id="&lt;Path&gt;" class="s41" d="m1101.4 2079.8c-8.4-29.9 13.9-37.8 30.5-29.1q16.5 8.6 6.1 52.3q-26.2 14.1-36.6-23.2z" />
					</g>
				</g>
				<g id="&lt;Group&gt;">
					<path id="&lt;Path&gt;" class="s42" d="m1091.9 2525.4c-0.1-8.1 6.5-14.7 14.7-14.7l328.9-0.4c8.1-0.1 14.8 6.6 14.8 14.7c0 8.2-6.6 14.8-14.7 14.8l-329 0.3q-0.4 0-0.8 0c-7.7-0.4-13.9-6.8-13.9-14.7z" />
					<path id="&lt;Path&gt;" class="s43" d="m1751.7 2271.4l-98.3 248.5c-4.8 12.1-16.5 20-29.5 20h-340.5l126.7-268.5c8.6-18.3 27-30 47.2-30h274c15.4 0 26 15.6 20.4 30z" />
					<path id="&lt;Path&gt;" class="s44" d="m1569.6 2352.4c11.3 3.6 15.7 21.5 9.8 40c-6 18.4-20 30.4-31.3 26.8c-11.4-3.7-15.7-21.6-9.8-40.1c5.9-18.4 19.9-30.4 31.3-26.7z" />
				</g>
				<g id="&lt;Group&gt;">
					<g id="&lt;Group&gt;">
						<path id="&lt;Path&gt;" class="s12" d="m1664.3 3237.6l-289.9-652.5c-3.1-6.8 0.2-14.7 7.2-17.6c7-2.9 15.1 0.2 18.2 7l289.9 652.5c3 6.8-0.2 14.7-7.2 17.6c-1.8 0.8-3.7 1.1-5.5 1.1c-5.4 0-10.5-3-12.7-8.1z" />
						<path id="&lt;Path&gt;" class="s12" d="m1344.9 3244.6c-7-2.9-10.2-10.8-7.2-17.6l289.9-652.5c3-6.8 11.2-9.9 18.2-7c7 2.9 10.2 10.8 7.2 17.6l-289.9 652.5c-2.3 5.1-7.4 8.1-12.7 8.1c-1.8 0-3.7-0.3-5.5-1.1z" />
						<path id="&lt;Path&gt;" class="s12" d="m799.8 3237.6l-289.9-652.5c-3-6.8 0.2-14.7 7.2-17.6c7-2.9 15.1 0.2 18.2 7l289.9 652.5c3 6.8-0.2 14.7-7.2 17.6c-1.8 0.8-3.7 1.1-5.5 1.1c-5.4 0-10.5-3-12.7-8.1z" />
						<path id="&lt;Path&gt;" class="s12" d="m480.4 3244.6c-7-2.9-10.2-10.8-7.2-17.6l289.9-652.5c3-6.8 11.2-9.9 18.2-7c7 2.9 10.2 10.8 7.2 17.6l-289.9 652.5c-2.3 5.1-7.4 8.1-12.7 8.1c-1.8 0-3.7-0.3-5.5-1.1z" />
					</g>
					<path id="&lt;Path&gt;" class="s12" d="m442.7 2554.4c-0.8-4.3 0.2-8.7 2.6-12.1c2.4-3.4 6-5.3 9.8-5.3h1284.9c4.9 0 9.6 2.9 12.3 7.7c2.7 4.9 3 10.9 0.9 16.2l-13.9 34.6c-3.2 7.9-10.1 13-17.7 13h-1257.7c-7 0-13.1-5.8-14.4-13.7z" />
				</g>
			</g>
			<g id="&lt;Group&gt;">
				<g id="&lt;Group&gt;">
					<path id="&lt;Path&gt;" class="s45" d="m1761.7 2152.5c-2.9 0-5.5-2.5-5.7-5.7l-0.8-12.7c-0.2-3.5 2.3-6.3 5.5-6.3q6.4 0 13 0.9c57.6 7.8 100.1 64.6 94.7 126.8q-0.4 4.1-1 8.1c-0.4 2.8-2.6 4.9-5.2 5l-12.2 0.3c-3.7 0.1-6.5-3.7-5.7-7.6q0.8-4.3 1.2-8.9c4.3-48.6-28.9-93.1-74.1-99.2q-4.9-0.7-9.7-0.7z" />
					<path id="&lt;Path&gt;" class="s45" d="m1757.6 2088.8c-3 0-5.6-2.5-5.8-5.7l-0.8-12.6c-0.2-3.4 2.1-6.2 5.2-6.3c7.6-0.1 15.4 0.3 23.2 1.4c89.4 12.1 155.6 99.6 148.3 196.1c-2 2-3.3 3.3-5.4 5.4l-11.8 0.3c-3.5 0-6.2-3.2-5.9-6.9c7.2-83.7-50-160-127.4-170.5c-6.6-0.9-13.2-1.3-19.6-1.2z" />
					<path id="&lt;Path&gt;" class="s45" d="m1753.5 2025.4c-3 0-5.6-2.5-5.8-5.7l-0.9-12.6c-0.2-3.3 2.2-6.1 5.2-6.2c10.9-0.3 21.9 0.3 33.1 1.8c118.6 16.1 207.2 129.9 202.2 257.3c-0.1 3.1-2.4 5.5-5.3 5.6l-11.8 0.3c-3.3 0.1-6-3.1-5.9-6.7c5.2-114.9-74.6-217.7-181.4-232.2c-9.9-1.3-19.7-1.8-29.4-1.6z" />
				</g>
			</g>
		</g>
	</g>
</svg>